<?xml version='1.0' encoding='UTF-8' standalone='no'?>
<!-- Created with Fritzing (https://fritzing.org/) -->
<svg xmlns:svg='http://www.w3.org/2000/svg' xmlns='http://www.w3.org/2000/svg' version='1.2' baseProfile='tiny' x='0in' y='0in' width='5.38909in' height='1.4911in' viewBox='0 0 388.014 107.359' >
<g partID='121510'><g transform='translate(99.2012,28.3704)' ><g  id="breadboard">
 <path  fill="#1A1A1A" id="_x30_.1" d="M2.835,0l0,50.598l100.63,0L103.465,0L2.835,0zM42.349,1.906c0.998,0,1.812,0.813,1.812,1.813s-0.814,1.813,-1.812,1.813c-1,0,-1.812,-0.813,-1.812,-1.813C40.538,2.72,41.349,1.906,42.349,1.906zM42.349,10.133c0.998,0,1.812,0.813,1.812,1.813s-0.813,1.813,-1.812,1.813c-1,0,-1.812,-0.813,-1.812,-1.813C40.538,10.948,41.349,10.133,42.349,10.133zM6.348,48.682c-1,0,-1.812,-0.811,-1.812,-1.811c0,-0.998,0.812,-1.813,1.812,-1.813c0.998,0,1.812,0.813,1.812,1.813S7.346,48.682,6.348,48.682zM6.348,5.531c-1,0,-1.812,-0.813,-1.812,-1.813c0,-0.998,0.812,-1.813,1.812,-1.813c0.998,0,1.812,0.813,1.812,1.813S7.346,5.531,6.348,5.531zM13.549,48.682c-1,0,-1.812,-0.811,-1.812,-1.811c0,-0.998,0.812,-1.813,1.812,-1.813c0.998,0,1.812,0.813,1.812,1.813S14.547,48.682,13.549,48.682zM13.549,13.758c-1,0,-1.812,-0.813,-1.812,-1.813c0,-0.994,0.812,-1.813,1.812,-1.813c0.998,0,1.812,0.813,1.812,1.813S14.547,13.758,13.549,13.758zM13.549,5.531c-1,0,-1.812,-0.813,-1.812,-1.813c0,-0.998,0.812,-1.813,1.812,-1.813c0.998,0,1.812,0.813,1.812,1.813S14.547,5.531,13.549,5.531zM20.749,48.682c-1,0,-1.812,-0.811,-1.812,-1.811c0,-0.998,0.812,-1.813,1.812,-1.813c0.998,0,1.812,0.813,1.812,1.813S21.747,48.682,20.749,48.682zM20.749,5.531c-1,0,-1.812,-0.813,-1.812,-1.813c0,-0.998,0.812,-1.813,1.812,-1.813c0.998,0,1.812,0.813,1.812,1.813S21.747,5.531,20.749,5.531zM27.949,48.682c-1,0,-1.812,-0.811,-1.812,-1.811c0,-0.998,0.812,-1.813,1.812,-1.813c0.998,0,1.812,0.813,1.812,1.813S28.947,48.682,27.949,48.682zM27.949,13.758c-1,0,-1.812,-0.813,-1.812,-1.813c0,-0.994,0.812,-1.813,1.812,-1.813c0.998,0,1.812,0.813,1.812,1.813S28.947,13.758,27.949,13.758zM27.949,5.531c-1,0,-1.812,-0.813,-1.812,-1.813c0,-0.998,0.812,-1.813,1.812,-1.813c0.998,0,1.812,0.813,1.812,1.813S28.947,5.531,27.949,5.531zM35.149,48.682c-1,0,-1.812,-0.811,-1.812,-1.811c0,-0.998,0.812,-1.813,1.812,-1.813c0.998,0,1.812,0.813,1.812,1.813S36.147,48.682,35.149,48.682zM35.149,13.758c-1,0,-1.812,-0.813,-1.812,-1.813c0,-0.994,0.812,-1.813,1.812,-1.813c0.998,0,1.812,0.813,1.812,1.813S36.147,13.758,35.149,13.758zM35.149,5.531c-1,0,-1.812,-0.813,-1.812,-1.813c0,-0.998,0.812,-1.813,1.812,-1.813c0.998,0,1.812,0.813,1.812,1.813S36.147,5.531,35.149,5.531zM39.087,22.723c0,-0.533,0.433,-0.968,0.967,-0.968c0.533,0,0.968,0.434,0.968,0.968s-0.435,0.968,-0.968,0.968C39.52,23.69,39.087,23.257,39.087,22.723zM42.349,48.682c-1,0,-1.812,-0.811,-1.812,-1.811c0,-0.998,0.812,-1.813,1.812,-1.813c0.998,0,1.812,0.813,1.812,1.813S43.347,48.682,42.349,48.682zM43.901,23.69c-0.534,0,-0.968,-0.434,-0.968,-0.968c0,-0.533,0.434,-0.968,0.968,-0.968c0.533,0,0.967,0.434,0.967,0.968S44.433,23.69,43.901,23.69zM49.55,48.682c-1,0,-1.812,-0.811,-1.812,-1.811c0,-0.998,0.812,-1.813,1.812,-1.813c0.998,0,1.812,0.813,1.812,1.813S50.548,48.682,49.55,48.682zM49.55,5.531c-1,0,-1.812,-0.813,-1.812,-1.813c0,-0.998,0.812,-1.813,1.812,-1.813c0.998,0,1.812,0.813,1.812,1.813S50.548,5.531,49.55,5.531zM56.75,48.682c-1,0,-1.813,-0.811,-1.813,-1.811c0,-0.998,0.813,-1.813,1.813,-1.813c0.998,0,1.813,0.813,1.813,1.813S57.748,48.682,56.75,48.682zM56.75,5.531c-1,0,-1.813,-0.813,-1.813,-1.813c0,-0.998,0.813,-1.813,1.813,-1.813c0.998,0,1.813,0.813,1.813,1.813S57.748,5.531,56.75,5.531zM63.95,48.682c-1,0,-1.812,-0.811,-1.812,-1.811c0,-0.998,0.812,-1.813,1.812,-1.813c0.997,0,1.812,0.813,1.812,1.813S64.947,48.682,63.95,48.682zM63.95,5.531c-1,0,-1.812,-0.813,-1.812,-1.813c0,-0.998,0.812,-1.813,1.812,-1.813c0.997,0,1.812,0.813,1.812,1.813S64.947,5.531,63.95,5.531zM71.15,48.682c-1,0,-1.813,-0.811,-1.813,-1.811c0,-0.998,0.813,-1.813,1.813,-1.813c0.998,0,1.812,0.813,1.812,1.813S72.148,48.682,71.15,48.682zM71.15,5.531c-1,0,-1.813,-0.813,-1.813,-1.813c0,-0.998,0.813,-1.813,1.813,-1.813c0.998,0,1.812,0.813,1.812,1.813S72.148,5.531,71.15,5.531zM78.352,48.682c-1,0,-1.813,-0.811,-1.813,-1.811c0,-0.998,0.813,-1.813,1.813,-1.813c0.998,0,1.813,0.813,1.813,1.813S79.35,48.682,78.352,48.682zM78.352,5.531c-1,0,-1.813,-0.813,-1.813,-1.813c0,-0.998,0.813,-1.813,1.813,-1.813c0.998,0,1.813,0.813,1.813,1.813S79.35,5.531,78.352,5.531zM85.551,48.682c-1,0,-1.811,-0.811,-1.811,-1.811c0,-0.998,0.811,-1.813,1.811,-1.813c0.998,0,1.813,0.813,1.813,1.813S86.549,48.682,85.551,48.682zM85.551,5.531c-1,0,-1.811,-0.813,-1.811,-1.813c0,-0.998,0.811,-1.813,1.811,-1.813c0.998,0,1.813,0.813,1.813,1.813S86.549,5.531,85.551,5.531zM92.752,48.682c-1,0,-1.813,-0.811,-1.813,-1.811c0,-0.998,0.813,-1.813,1.813,-1.813c0.998,0,1.811,0.813,1.811,1.813S93.75,48.682,92.752,48.682zM92.752,5.531c-1,0,-1.813,-0.813,-1.813,-1.813c0,-0.998,0.813,-1.813,1.813,-1.813c0.998,0,1.811,0.813,1.811,1.813S93.75,5.531,92.752,5.531zM99.951,48.682c-1,0,-1.811,-0.811,-1.811,-1.811c0,-0.998,0.811,-1.813,1.811,-1.813c0.998,0,1.813,0.813,1.813,1.813S100.949,48.682,99.951,48.682zM99.951,41.531c-1,0,-1.811,-0.813,-1.811,-1.813c0,-0.998,0.811,-1.813,1.811,-1.813c0.998,0,1.813,0.813,1.813,1.813S100.949,41.531,99.951,41.531zM99.951,34.331c-1,0,-1.811,-0.813,-1.811,-1.813c0,-0.998,0.811,-1.813,1.811,-1.813c0.998,0,1.813,0.813,1.813,1.813S100.949,34.331,99.951,34.331zM99.951,27.129c-1,0,-1.811,-0.813,-1.811,-1.813c0,-0.998,0.811,-1.813,1.811,-1.813c0.998,0,1.813,0.813,1.813,1.813S100.949,27.129,99.951,27.129zM99.951,19.93c-1,0,-1.811,-0.811,-1.811,-1.811c0,-0.998,0.811,-1.813,1.811,-1.813c0.998,0,1.813,0.813,1.813,1.813S100.949,19.93,99.951,19.93zM99.951,12.729c-1,0,-1.811,-0.811,-1.811,-1.811c0,-0.998,0.811,-1.813,1.811,-1.813c0.998,0,1.813,0.813,1.813,1.813S100.949,12.729,99.951,12.729zM99.951,5.531c-1,0,-1.811,-0.813,-1.811,-1.813c0,-0.998,0.811,-1.813,1.811,-1.813c0.998,0,1.813,0.813,1.813,1.813S100.949,5.531,99.951,5.531z"/>
 <g  id="_x30_.2">
  <g  id="_x30_.2.0">
   <g  id="_x30_.2.0.0">
    <path  fill="#9A916C" id="_x30_.2.0.0.0" d="M6.348,1.167c-1.405,0,-2.554,1.146,-2.554,2.555c0,1.406,1.146,2.555,2.554,2.555c1.408,0,2.554,-1.146,2.554,-2.555C8.901,2.313,7.757,1.167,6.348,1.167zM6.348,5.531c-1,0,-1.812,-0.813,-1.812,-1.813c0,-0.998,0.812,-1.813,1.812,-1.813c0.998,0,1.812,0.813,1.812,1.813S7.346,5.531,6.348,5.531z"/>
   </g>
   <g  id="_x30_.2.0.1">
    <path  fill="#9A916C" id="_x30_.2.0.1.0" d="M13.549,1.167c-1.405,0,-2.554,1.146,-2.554,2.555c0,1.406,1.146,2.555,2.554,2.555c1.408,0,2.554,-1.146,2.554,-2.555C16.101,2.313,14.957,1.167,13.549,1.167zM13.549,5.531c-1,0,-1.812,-0.813,-1.812,-1.813c0,-0.998,0.812,-1.813,1.812,-1.813c0.998,0,1.812,0.813,1.812,1.813S14.547,5.531,13.549,5.531z"/>
   </g>
   <g  id="_x30_.2.0.2">
    <path  fill="#9A916C" id="_x30_.2.0.2.0" d="M20.749,1.167c-1.405,0,-2.554,1.146,-2.554,2.555c0,1.406,1.146,2.555,2.554,2.555s2.554,-1.146,2.554,-2.555C23.302,2.313,22.157,1.167,20.749,1.167zM20.749,5.531c-1,0,-1.812,-0.813,-1.812,-1.813c0,-0.998,0.812,-1.813,1.812,-1.813c0.998,0,1.812,0.813,1.812,1.813S21.747,5.531,20.749,5.531z"/>
   </g>
   <g  id="_x30_.2.0.3">
    <path  fill="#9A916C" id="_x30_.2.0.3.0" d="M27.949,1.167c-1.405,0,-2.554,1.146,-2.554,2.555c0,1.406,1.146,2.555,2.554,2.555c1.408,0,2.554,-1.146,2.554,-2.555C30.502,2.313,29.357,1.167,27.949,1.167zM27.949,5.531c-1,0,-1.812,-0.813,-1.812,-1.813c0,-0.998,0.812,-1.813,1.812,-1.813c0.998,0,1.812,0.813,1.812,1.813S28.947,5.531,27.949,5.531z"/>
   </g>
   <g  id="_x30_.2.0.4">
    <path  fill="#9A916C" id="_x30_.2.0.4.0" d="M35.149,1.167c-1.405,0,-2.554,1.146,-2.554,2.555c0,1.406,1.146,2.555,2.554,2.555c1.408,0,2.554,-1.146,2.554,-2.555C37.702,2.313,36.557,1.167,35.149,1.167zM35.149,5.531c-1,0,-1.812,-0.813,-1.812,-1.813c0,-0.998,0.812,-1.813,1.812,-1.813c0.998,0,1.812,0.813,1.812,1.813S36.147,5.531,35.149,5.531z"/>
   </g>
   <g  id="_x30_.2.0.5">
    <path  fill="#9A916C" id="_x30_.2.0.5.0" d="M42.349,1.167c-1.405,0,-2.554,1.146,-2.554,2.555c0,1.406,1.146,2.555,2.554,2.555c1.408,0,2.554,-1.146,2.554,-2.555C44.902,2.313,43.758,1.167,42.349,1.167zM42.349,5.531c-1,0,-1.812,-0.813,-1.812,-1.813c0,-0.998,0.812,-1.813,1.812,-1.813c0.998,0,1.812,0.813,1.812,1.813S43.347,5.531,42.349,5.531z"/>
   </g>
   <g  id="_x30_.2.0.6">
    <path  fill="#9A916C" id="_x30_.2.0.6.0" d="M49.55,1.167c-1.405,0,-2.554,1.146,-2.554,2.555c0,1.406,1.146,2.555,2.554,2.555c1.408,0,2.554,-1.146,2.554,-2.555C52.102,2.313,50.958,1.167,49.55,1.167zM49.55,5.531c-1,0,-1.812,-0.813,-1.812,-1.813c0,-0.998,0.812,-1.813,1.812,-1.813c0.998,0,1.812,0.813,1.812,1.813S50.548,5.531,49.55,5.531z"/>
   </g>
   <g  id="_x30_.2.0.7">
    <path  fill="#9A916C" id="_x30_.2.0.7.0" d="M56.75,1.167c-1.404,0,-2.555,1.146,-2.555,2.555c0,1.406,1.146,2.555,2.555,2.555s2.555,-1.146,2.555,-2.555C59.303,2.313,58.158,1.167,56.75,1.167zM56.75,5.531c-1,0,-1.813,-0.813,-1.813,-1.813c0,-0.998,0.813,-1.813,1.813,-1.813c0.998,0,1.813,0.813,1.813,1.813S57.748,5.531,56.75,5.531z"/>
   </g>
   <g  id="_x30_.2.0.8">
    <path  fill="#9A916C" id="_x30_.2.0.8.0" d="M63.95,1.167c-1.405,0,-2.554,1.146,-2.554,2.555c0,1.406,1.146,2.555,2.554,2.555c1.407,0,2.554,-1.146,2.554,-2.555C66.503,2.313,65.357,1.167,63.95,1.167zM63.95,5.531c-1,0,-1.812,-0.813,-1.812,-1.813c0,-0.998,0.812,-1.813,1.812,-1.813c0.997,0,1.812,0.813,1.812,1.813S64.947,5.531,63.95,5.531z"/>
   </g>
   <g  id="_x30_.2.0.9">
    <path  fill="#9A916C" id="_x30_.2.0.9.0" d="M71.15,1.167c-1.405,0,-2.555,1.146,-2.555,2.555c0,1.406,1.146,2.555,2.555,2.555c1.408,0,2.554,-1.146,2.554,-2.555C73.703,2.313,72.559,1.167,71.15,1.167zM71.15,5.531c-1,0,-1.813,-0.813,-1.813,-1.813c0,-0.998,0.813,-1.813,1.813,-1.813c0.998,0,1.812,0.813,1.812,1.813S72.148,5.531,71.15,5.531z"/>
   </g>
   <g  id="_x30_.2.0.10">
    <path  fill="#9A916C" id="_x30_.2.0.10.0" d="M78.352,1.167c-1.406,0,-2.555,1.146,-2.555,2.555c0,1.406,1.146,2.555,2.555,2.555c1.41,0,2.553,-1.146,2.553,-2.555S79.76,1.167,78.352,1.167zM78.352,5.531c-1,0,-1.813,-0.813,-1.813,-1.813c0,-0.998,0.813,-1.813,1.813,-1.813c0.998,0,1.813,0.813,1.813,1.813S79.35,5.531,78.352,5.531z"/>
   </g>
   <g  id="_x30_.2.0.11">
    <path  fill="#9A916C" id="_x30_.2.0.11.0" d="M85.551,1.167c-1.404,0,-2.553,1.146,-2.553,2.555c0,1.406,1.146,2.555,2.553,2.555c1.408,0,2.555,-1.146,2.555,-2.555C88.104,2.313,86.959,1.167,85.551,1.167zM85.551,5.531c-1,0,-1.811,-0.813,-1.811,-1.813c0,-0.998,0.811,-1.813,1.811,-1.813c0.998,0,1.813,0.813,1.813,1.813S86.549,5.531,85.551,5.531z"/>
   </g>
   <g  id="_x30_.2.0.12">
    <path  fill="#9A916C" id="_x30_.2.0.12.0" d="M92.752,1.167c-1.406,0,-2.555,1.146,-2.555,2.555c0,1.406,1.146,2.555,2.555,2.555s2.553,-1.146,2.553,-2.555S94.16,1.167,92.752,1.167zM92.752,5.531c-1,0,-1.813,-0.813,-1.813,-1.813c0,-0.998,0.813,-1.813,1.813,-1.813c0.998,0,1.811,0.813,1.811,1.813S93.75,5.531,92.752,5.531z"/>
   </g>
   <g  id="_x30_.2.0.13">
    <path  fill="#9A916C" id="_x30_.2.0.13.0" d="M99.951,1.167c-1.404,0,-2.553,1.146,-2.553,2.555c0,1.406,1.146,2.555,2.553,2.555c1.408,0,2.555,-1.146,2.555,-2.555C102.504,2.313,101.359,1.167,99.951,1.167zM99.951,5.531c-1,0,-1.811,-0.813,-1.811,-1.813c0,-0.998,0.811,-1.813,1.811,-1.813c0.998,0,1.813,0.813,1.813,1.813S100.949,5.531,99.951,5.531z"/>
   </g>
   <g  id="_x30_.2.0.14">
    <path  fill="#9A916C" id="_x30_.2.0.14.0" d="M13.549,9.395c-1.405,0,-2.554,1.146,-2.554,2.559c0,1.402,1.146,2.555,2.554,2.555c1.408,0,2.554,-1.146,2.554,-2.555C16.101,10.541,14.957,9.395,13.549,9.395zM13.549,13.758c-1,0,-1.812,-0.813,-1.812,-1.813c0,-0.994,0.812,-1.813,1.812,-1.813c0.998,0,1.812,0.813,1.812,1.813S14.547,13.758,13.549,13.758z"/>
   </g>
   <g  id="_x30_.2.0.15">
    <path  fill="#9A916C" id="_x30_.2.0.15.0" d="M27.949,9.395c-1.405,0,-2.554,1.146,-2.554,2.559c0,1.402,1.146,2.555,2.554,2.555c1.408,0,2.554,-1.146,2.554,-2.555C30.502,10.541,29.357,9.395,27.949,9.395zM27.949,13.758c-1,0,-1.812,-0.813,-1.812,-1.813c0,-0.994,0.812,-1.813,1.812,-1.813c0.998,0,1.812,0.813,1.812,1.813S28.947,13.758,27.949,13.758z"/>
   </g>
   <g  id="_x30_.2.0.16">
    <path  fill="#9A916C" id="_x30_.2.0.16.0" d="M35.149,9.395c-1.405,0,-2.554,1.146,-2.554,2.559c0,1.402,1.146,2.555,2.554,2.555c1.408,0,2.554,-1.146,2.554,-2.555C37.702,10.541,36.557,9.395,35.149,9.395zM35.149,13.758c-1,0,-1.812,-0.813,-1.812,-1.813c0,-0.994,0.812,-1.813,1.812,-1.813c0.998,0,1.812,0.813,1.812,1.813S36.147,13.758,35.149,13.758z"/>
   </g>
   <g  id="_x30_.2.0.17">
    <path  fill="#9A916C" id="_x30_.2.0.17.0" d="M42.349,9.395c-1.405,0,-2.554,1.146,-2.554,2.559c0,1.402,1.146,2.555,2.554,2.555c1.408,0,2.554,-1.146,2.554,-2.555C44.902,10.541,43.758,9.395,42.349,9.395zM42.349,13.758c-1,0,-1.812,-0.813,-1.812,-1.813c0,-0.994,0.812,-1.813,1.812,-1.813c0.998,0,1.812,0.813,1.812,1.813S43.347,13.758,42.349,13.758z"/>
   </g>
   <g  id="_x30_.2.0.18">
    <path  fill="#9A916C" id="_x30_.2.0.18.0" d="M40.054,21.36c-0.75,0,-1.364,0.612,-1.364,1.364c0,0.751,0.612,1.364,1.364,1.364c0.752,0,1.364,-0.612,1.364,-1.364C41.418,21.973,40.807,21.36,40.054,21.36zM40.054,23.69c-0.534,0,-0.967,-0.434,-0.967,-0.968c0,-0.533,0.433,-0.968,0.967,-0.968c0.533,0,0.968,0.434,0.968,0.968S40.588,23.69,40.054,23.69z"/>
   </g>
   <g  id="_x30_.2.0.19">
    <path  fill="#9A916C" id="_x30_.2.0.19.0" d="M43.901,21.36c-0.751,0,-1.364,0.612,-1.364,1.364c0,0.751,0.612,1.364,1.364,1.364s1.364,-0.612,1.364,-1.364C45.264,21.973,44.653,21.36,43.901,21.36zM43.901,23.69c-0.534,0,-0.968,-0.434,-0.968,-0.968c0,-0.533,0.434,-0.968,0.968,-0.968c0.533,0,0.967,0.434,0.967,0.968S44.433,23.69,43.901,23.69z"/>
   </g>
  </g>
  <g  id="_x30_.2.1">
   <g  id="_x30_.2.1.0">
    <path  fill="#9A916C" id="_x30_.2.1.0.0" d="M99.951,37.168c-1.404,0,-2.553,1.146,-2.553,2.555c0,1.406,1.146,2.555,2.553,2.555c1.408,0,2.555,-1.146,2.555,-2.555C102.504,38.313,101.359,37.168,99.951,37.168zM99.951,41.531c-1,0,-1.811,-0.813,-1.811,-1.813c0,-0.998,0.811,-1.813,1.811,-1.813c0.998,0,1.813,0.813,1.813,1.813S100.949,41.531,99.951,41.531z"/>
   </g>
   <g  id="_x30_.2.1.1">
    <path  fill="#9A916C" id="_x30_.2.1.1.0" d="M99.951,29.969c-1.404,0,-2.553,1.146,-2.553,2.555c0,1.406,1.146,2.559,2.553,2.559c1.408,0,2.555,-1.146,2.555,-2.559C102.504,31.115,101.359,29.969,99.951,29.969zM99.951,34.331c-1,0,-1.811,-0.813,-1.811,-1.813c0,-0.998,0.811,-1.813,1.811,-1.813c0.998,0,1.813,0.813,1.813,1.813S100.949,34.331,99.951,34.331z"/>
   </g>
   <g  id="_x30_.2.1.2">
    <path  fill="#9A916C" id="_x30_.2.1.2.0" d="M99.951,22.769c-1.404,0,-2.553,1.146,-2.553,2.559c0,1.402,1.146,2.554,2.553,2.554c1.408,0,2.555,-1.146,2.555,-2.554C102.504,23.913,101.359,22.769,99.951,22.769zM99.951,27.129c-1,0,-1.811,-0.813,-1.811,-1.813c0,-0.998,0.811,-1.813,1.811,-1.813c0.998,0,1.813,0.813,1.813,1.813S100.949,27.129,99.951,27.129z"/>
   </g>
   <g  id="_x30_.2.1.3">
    <path  fill="#9A916C" id="_x30_.2.1.3.0" d="M99.951,15.568c-1.404,0,-2.553,1.146,-2.553,2.559c0,1.402,1.146,2.555,2.553,2.555c1.408,0,2.555,-1.146,2.555,-2.555C102.504,16.713,101.359,15.568,99.951,15.568zM99.951,19.93c-1,0,-1.811,-0.811,-1.811,-1.811c0,-0.998,0.811,-1.813,1.811,-1.813c0.998,0,1.813,0.813,1.813,1.813S100.949,19.93,99.951,19.93z"/>
   </g>
   <g  id="_x30_.2.1.4">
    <path  fill="#9A916C" id="_x30_.2.1.4.0" d="M99.951,8.368c-1.404,0,-2.553,1.146,-2.553,2.555c0,1.406,1.146,2.555,2.553,2.555c1.408,0,2.555,-1.146,2.555,-2.555C102.504,9.513,101.359,8.368,99.951,8.368zM99.951,12.729c-1,0,-1.811,-0.811,-1.811,-1.811c0,-0.998,0.811,-1.813,1.811,-1.813c0.998,0,1.813,0.813,1.813,1.813S100.949,12.729,99.951,12.729z"/>
   </g>
  </g>
  <g  id="_x30_.2.2">
   <g  id="_x30_.2.2.0">
    <path  fill="#9A916C" id="_x30_.2.2.0.0" d="M6.348,44.321c-1.405,0,-2.554,1.146,-2.554,2.559c0,1.406,1.146,2.555,2.554,2.555c1.408,0,2.554,-1.146,2.554,-2.555C8.901,45.465,7.757,44.321,6.348,44.321zM6.348,48.682c-1,0,-1.812,-0.811,-1.812,-1.811c0,-0.998,0.812,-1.813,1.812,-1.813c0.998,0,1.812,0.813,1.812,1.813S7.346,48.682,6.348,48.682z"/>
   </g>
   <g  id="_x30_.2.2.1">
    <path  fill="#9A916C" id="_x30_.2.2.1.0" d="M13.549,44.321c-1.405,0,-2.554,1.146,-2.554,2.559c0,1.406,1.146,2.555,2.554,2.555c1.408,0,2.554,-1.146,2.554,-2.555C16.101,45.465,14.957,44.321,13.549,44.321zM13.549,48.682c-1,0,-1.812,-0.811,-1.812,-1.811c0,-0.998,0.812,-1.813,1.812,-1.813c0.998,0,1.812,0.813,1.812,1.813S14.547,48.682,13.549,48.682z"/>
   </g>
   <g  id="_x30_.2.2.2">
    <path  fill="#9A916C" id="_x30_.2.2.2.0" d="M20.749,44.321c-1.405,0,-2.554,1.146,-2.554,2.559c0,1.406,1.146,2.555,2.554,2.555s2.554,-1.146,2.554,-2.555C23.302,45.465,22.157,44.321,20.749,44.321zM20.749,48.682c-1,0,-1.812,-0.811,-1.812,-1.811c0,-0.998,0.812,-1.813,1.812,-1.813c0.998,0,1.812,0.813,1.812,1.813S21.747,48.682,20.749,48.682z"/>
   </g>
   <g  id="_x30_.2.2.3">
    <path  fill="#9A916C" id="_x30_.2.2.3.0" d="M27.949,44.321c-1.405,0,-2.554,1.146,-2.554,2.559c0,1.406,1.146,2.555,2.554,2.555c1.408,0,2.554,-1.146,2.554,-2.555C30.502,45.465,29.357,44.321,27.949,44.321zM27.949,48.682c-1,0,-1.812,-0.811,-1.812,-1.811c0,-0.998,0.812,-1.813,1.812,-1.813c0.998,0,1.812,0.813,1.812,1.813S28.947,48.682,27.949,48.682z"/>
   </g>
   <g  id="_x30_.2.2.4">
    <path  fill="#9A916C" id="_x30_.2.2.4.0" d="M35.149,44.321c-1.405,0,-2.554,1.146,-2.554,2.559c0,1.406,1.146,2.555,2.554,2.555c1.408,0,2.554,-1.146,2.554,-2.555C37.702,45.465,36.557,44.321,35.149,44.321zM35.149,48.682c-1,0,-1.812,-0.811,-1.812,-1.811c0,-0.998,0.812,-1.813,1.812,-1.813c0.998,0,1.812,0.813,1.812,1.813S36.147,48.682,35.149,48.682z"/>
   </g>
   <g  id="_x30_.2.2.5">
    <path  fill="#9A916C" id="_x30_.2.2.5.0" d="M42.349,44.321c-1.405,0,-2.554,1.146,-2.554,2.559c0,1.406,1.146,2.555,2.554,2.555c1.408,0,2.554,-1.146,2.554,-2.555C44.902,45.465,43.758,44.321,42.349,44.321zM42.349,48.682c-1,0,-1.812,-0.811,-1.812,-1.811c0,-0.998,0.812,-1.813,1.812,-1.813c0.998,0,1.812,0.813,1.812,1.813S43.347,48.682,42.349,48.682z"/>
   </g>
   <g  id="_x30_.2.2.6">
    <path  fill="#9A916C" id="_x30_.2.2.6.0" d="M49.55,44.321c-1.405,0,-2.554,1.146,-2.554,2.559c0,1.406,1.146,2.555,2.554,2.555c1.408,0,2.554,-1.146,2.554,-2.555C52.102,45.465,50.958,44.321,49.55,44.321zM49.55,48.682c-1,0,-1.812,-0.811,-1.812,-1.811c0,-0.998,0.812,-1.813,1.812,-1.813c0.998,0,1.812,0.813,1.812,1.813S50.548,48.682,49.55,48.682z"/>
   </g>
   <g  id="_x30_.2.2.7">
    <path  fill="#9A916C" id="_x30_.2.2.7.0" d="M56.75,44.321c-1.404,0,-2.555,1.146,-2.555,2.559c0,1.406,1.146,2.555,2.555,2.555s2.555,-1.146,2.555,-2.555C59.303,45.465,58.158,44.321,56.75,44.321zM56.75,48.682c-1,0,-1.813,-0.811,-1.813,-1.811c0,-0.998,0.813,-1.813,1.813,-1.813c0.998,0,1.813,0.813,1.813,1.813S57.748,48.682,56.75,48.682z"/>
   </g>
   <g  id="_x30_.2.2.8">
    <path  fill="#9A916C" id="_x30_.2.2.8.0" d="M63.95,44.321c-1.405,0,-2.554,1.146,-2.554,2.559c0,1.406,1.146,2.555,2.554,2.555c1.407,0,2.554,-1.146,2.554,-2.555C66.503,45.465,65.357,44.321,63.95,44.321zM63.95,48.682c-1,0,-1.812,-0.811,-1.812,-1.811c0,-0.998,0.812,-1.813,1.812,-1.813c0.997,0,1.812,0.813,1.812,1.813S64.947,48.682,63.95,48.682z"/>
   </g>
   <g  id="_x30_.2.2.9">
    <path  fill="#9A916C" id="_x30_.2.2.9.0" d="M71.15,44.321c-1.405,0,-2.555,1.146,-2.555,2.559c0,1.406,1.146,2.555,2.555,2.555c1.408,0,2.554,-1.146,2.554,-2.555C73.703,45.465,72.559,44.321,71.15,44.321zM71.15,48.682c-1,0,-1.813,-0.811,-1.813,-1.811c0,-0.998,0.813,-1.813,1.813,-1.813c0.998,0,1.812,0.813,1.812,1.813S72.148,48.682,71.15,48.682z"/>
   </g>
   <g  id="_x30_.2.2.10">
    <path  fill="#9A916C" id="_x30_.2.2.10.0" d="M78.352,44.321c-1.406,0,-2.555,1.146,-2.555,2.559c0,1.406,1.146,2.555,2.555,2.555c1.41,0,2.553,-1.146,2.553,-2.555C80.904,45.465,79.76,44.321,78.352,44.321zM78.352,48.682c-1,0,-1.813,-0.811,-1.813,-1.811c0,-0.998,0.813,-1.813,1.813,-1.813c0.998,0,1.813,0.813,1.813,1.813S79.35,48.682,78.352,48.682z"/>
   </g>
   <g  id="_x30_.2.2.11">
    <path  fill="#9A916C" id="_x30_.2.2.11.0" d="M85.551,44.321c-1.404,0,-2.553,1.146,-2.553,2.559c0,1.406,1.146,2.555,2.553,2.555c1.408,0,2.555,-1.146,2.555,-2.555C88.104,45.465,86.959,44.321,85.551,44.321zM85.551,48.682c-1,0,-1.811,-0.811,-1.811,-1.811c0,-0.998,0.811,-1.813,1.811,-1.813c0.998,0,1.813,0.813,1.813,1.813S86.549,48.682,85.551,48.682z"/>
   </g>
   <g  id="_x30_.2.2.12">
    <path  fill="#9A916C" id="_x30_.2.2.12.0" d="M92.752,44.321c-1.406,0,-2.555,1.146,-2.555,2.559c0,1.406,1.146,2.555,2.555,2.555s2.553,-1.146,2.553,-2.555C95.305,45.465,94.16,44.321,92.752,44.321zM92.752,48.682c-1,0,-1.813,-0.811,-1.813,-1.811c0,-0.998,0.813,-1.813,1.813,-1.813c0.998,0,1.811,0.813,1.811,1.813S93.75,48.682,92.752,48.682z"/>
   </g>
   <g  id="_x30_.2.2.13">
    <path  fill="#9A916C" id="_x30_.2.2.13.0" d="M99.951,44.321c-1.404,0,-2.553,1.146,-2.553,2.559c0,1.406,1.146,2.555,2.553,2.555c1.408,0,2.555,-1.146,2.555,-2.555C102.504,45.465,101.359,44.321,99.951,44.321zM99.951,48.682c-1,0,-1.811,-0.811,-1.811,-1.811c0,-0.998,0.811,-1.813,1.811,-1.813c0.998,0,1.813,0.813,1.813,1.813S100.949,48.682,99.951,48.682z"/>
   </g>
  </g>
 </g>
 <g  id="_x30_.3">
  <polygon  fill="#B3B3B3" points="0.035,34.735,0.035,15.892,17.16,15.892,17.16,34.737" id="_x30_.3.0"/>
  <rect  x="7.504" fill="#666666" id="_x30_.3.1" y="34.936" width="3.041" height="1.83"/>
  <rect  x="7.504" fill="#666666" id="_x30_.3.2" y="13.832" width="3.041" height="1.829"/>
  <rect  x="17.03" fill="#CCCCCC" id="_x30_.3.3" y="15.892" width="0.13" height="18.845"/>
  <rect  x="0.307" fill="#333333" id="_x30_.3.4" y="20.152" width="16.853" height="10.292"/>
  <rect  fill="#B3B3B3" id="_x30_.3.5" y="14.658" width="0.576" height="1.003"/>
  <rect  fill="#CCCCCC" id="_x30_.3.6" y="15.021" width="0.576" height="0.646"/>
  <rect  fill="#B3B3B3" id="_x30_.3.7" y="34.934" width="0.576" height="1.002"/>
  <rect  fill="#CCCCCC" id="_x30_.3.8" y="34.934" width="0.576" height="0.646"/>
  <path  fill="#CCCCCC" id="_x30_.3.9" d="M16.593,15.661l0.567,0.229l0,2.534c0,0,-0.113,-2.302,-0.283,-2.384s-0.284,0.106,-0.284,0.106L16.593,15.661z"/>
  <path  fill="#CCCCCC" id="_x30_.3.10" d="M16.593,34.936l0.566,-0.229l0,-2.533c0,0,-0.113,2.301,-0.283,2.383s-0.283,-0.105,-0.283,-0.105L16.593,34.936z"/>
  <path  fill="#E6E6E6" id="_x30_.3.11" d="M16.593,31.547l-1.066,0l0,-1.605l1.634,0l0,-0.461l-0.566,0l0,-8.36l0.566,0l0,-0.525l-1.635,0L15.526,18.99l1.067,0l0,-3.321L0.153,15.669l0,19.271l16.44,0L16.593,31.547zM3.303,20.592L2.489,20.592l0,-1.593L3.37,18.999c0.277,-0.426,0.76,-0.708,1.307,-0.708c0.598,0,1.105,0.219,1.369,0.708l0,0l4.48,0l0,1.592L6.043,20.591c-0.264,0.488,-0.773,0.825,-1.371,0.825C4.076,21.416,3.567,21.08,3.303,20.592zM3.303,31.479L2.489,31.479l0,-1.592L3.37,29.887c0.277,-0.426,0.76,-0.707,1.307,-0.707c0.598,0,1.105,0.217,1.369,0.707l0,0l4.48,0l0,1.592L6.043,31.479c-0.264,0.49,-0.773,0.826,-1.371,0.826C4.076,32.305,3.567,31.971,3.303,31.479z"/>
  <polygon  fill="#F2F2F2" points="0.151,16.066,0.151,15.661,16.593,15.661,16.593,17.191" id="_x30_.3.12"/>
  <polygon  fill="#999999" points="0.151,34.936,11.129,34.368,16.593,33.799,16.593,34.936" id="_x30_.3.13"/>
  <rect  x="10.395" fill="#CCCCCC" id="_x30_.3.14" y="18.999" width="0.131" height="1.592"/>
  <rect  x="10.395" fill="#CCCCCC" id="_x30_.3.15" y="29.889" width="0.131" height="1.592"/>
  <rect  x="0.354" fill="#B3B3B3" id="_x30_.3.16" y="16.605" width="0.66" height="17.391"/>
  <rect  x="0.151" fill="#CCCCCC" id="_x30_.3.17" y="16.605" width="0.313" height="17.391"/>
 </g>
 <rect  x="51.449" fill="#333333" id="_x30_.5" y="11.149" width="28.347" height="28.351"/>
 <rect  x="90.197" fill="#333333" id="_x30_.6" y="36.834" width="5.779" height="5.773"/>
 <rect  x="17.86" fill="#333333" id="_x30_.7" y="9.311" width="5.778" height="5.778"/>
 <rect  x="17.86" fill="#333333" id="_x30_.8" y="30.007" width="11.14" height="11.139"/>
 <rect  x="84.005" fill="#333333" id="_x30_.9" y="37.168" width="2.101" height="4.289"/>
 <rect  x="78.791" fill="#333333" id="_x30_.10" y="40.408" width="4.289" height="2.101"/>
 <rect  x="88.887" fill="#333333" id="_x30_.11" y="11.149" width="4.289" height="2.104"/>
 <rect  x="48.692" fill="#333333" id="_x30_.12" y="7.416" width="2.101" height="3.729"/>
 <rect  x="45.946" fill="#333333" id="_x30_.13" y="7.416" width="2.101" height="3.729"/>
 <rect  x="30.05" fill="#333333" id="_x30_.14" y="38.542" width="2.101" height="3.729"/>
 <g  id="_x30_.15">
  <g  id="_x30_.15.0">
   <rect  x="27.949" fill="#333333" id="_x30_.15.0.0" y="17.146" width="2.101" height="3.733"/>
  </g>
  <g  id="_x30_.15.1">
   <rect  x="18.702" fill="#333333" id="_x30_.15.1.0" y="21.128" width="2.101" height="6.221"/>
  </g>
  <g  id="_x30_.15.2">
   <rect  x="31.925" fill="#333333" id="_x30_.15.2.0" y="17.146" width="2.101" height="3.733"/>
  </g>
  <g  id="_x30_.15.3">
   <rect  x="35.901" fill="#333333" id="_x30_.15.3.0" y="17.146" width="2.101" height="4.703"/>
  </g>
  <g  id="_x30_.15.4">
   <rect  x="39.877" fill="#333333" id="_x30_.15.4.0" y="17.146" width="2.101" height="3.733"/>
  </g>
  <g  id="_x30_.15.5">
   <rect  x="43.853" fill="#333333" id="_x30_.15.5.0" y="17.146" width="2.101" height="3.733"/>
  </g>
 </g>
 <rect  x="88.887" fill="#333333" id="_x30_.16" y="8.368" width="5.704" height="2.101"/>
 <rect  x="82.203" fill="#333333" id="_x30_.17" y="8.368" width="5.704" height="2.101"/>
 <rect  x="18.702" fill="#333333" id="_x30_.18" y="16.141" width="4.093" height="2.104"/>
 <rect  x="34.379" fill="#333333" id="_x30_.19" y="33.554" width="11.586" height="6.088"/>
 <rect  x="22.139" fill="#333333" id="_x30_.20" y="21.198" width="4.093" height="2.101"/>
 <rect  x="22.139" fill="#333333" id="_x30_.21" y="24.339" width="4.093" height="2.101"/>
 <rect  x="5.742" fill="#333333" id="_x30_.22" y="38.672" width="4.093" height="2.102"/>
 <rect  x="41.853" fill="#333333" id="_x30_.23" y="30.007" width="4.093" height="2.102"/>
 <g  id="_x30_.24">
  <polygon  fill="#CCCCCC" points="88.785,23.096,88.932,23.096,88.932,27.503,88.785,27.503,88.785,30.833,95.088,30.833,95.088,19.766,88.785,19.766" id="_x30_.24.0"/>
  <polygon  fill="#CCCCCC" points="96.098,27.503,95.953,27.503,95.953,23.096,96.098,23.096,96.098,19.766,89.842,19.766,89.842,30.833,96.098,30.833" id="_x30_.24.1"/>
  <circle  cx="92.441" cy="25.3" r="2.316" id="_x30_.24.2"/>
  <path  enable-background="new    " id="_x30_.24.3" opacity="0.2" d="M92.553,27.617c1.281,0,2.318,-1.038,2.318,-2.316c0,-1.279,-1.037,-2.316,-2.318,-2.316l-0.111,0c1.281,0,2.316,1.036,2.316,2.316c0,1.278,-1.035,2.316,-2.316,2.316L92.553,27.617z"/>
  <circle  cx="92.441" fill="#1A1A1A" cy="25.3" r="2.232" id="_x30_.24.4"/>
  <circle  cx="92.389" fill="#333333" cy="25.3" r="2.232" id="_x30_.24.5"/>
  <path  enable-background="new    " id="_x30_.24.6" opacity="0.2" d="M92.494,27.532c1.232,0,2.232,-0.999,2.232,-2.231c0,-1.233,-1,-2.233,-2.232,-2.233l-0.105,0c1.232,0,2.232,1.001,2.232,2.233s-1,2.231,-2.232,2.231L92.494,27.532z"/>
  <path  enable-background="new    " fill="#FFFFFF" id="_x30_.24.7" opacity="0.2" d="M92.494,23.067c-1.232,0,-2.232,1.001,-2.232,2.233s1,2.231,2.232,2.231l-0.105,0c-1.23,0,-2.229,-0.999,-2.229,-2.231c0,-1.233,0.999,-2.233,2.229,-2.233L92.494,23.067z"/>
  <rect  x="88.785" enable-background="new    " fill="#FFFFFF" id="_x30_.24.8" y="19.765" width="0.146" height="3.331" opacity="0.2"/>
  <rect  x="88.785" enable-background="new    " fill="#FFFFFF" id="_x30_.24.9" y="27.503" width="0.146" height="3.33" opacity="0.2"/>
  <rect  x="88.932" enable-background="new    " fill="#FFFFFF" id="_x30_.24.10" y="23.096" width="0.146" height="4.407" opacity="0.2"/>
  <rect  x="95.945" enable-background="new    " id="_x30_.24.11" y="19.765" width="0.146" height="3.331" opacity="0.2"/>
  <rect  x="95.945" enable-background="new    " id="_x30_.24.12" y="27.503" width="0.146" height="3.33" opacity="0.2"/>
  <rect  x="95.799" enable-background="new    " id="_x30_.24.13" y="23.096" width="0.146" height="4.407" opacity="0.2"/>
 </g>
 <g  id="_x30_.26">
  <circle  cx="99.941" fill="none" stroke-width="1.224" cy="3.723" r="1.908" id="connector19pin" stroke="#9A916C"/>
  <circle  cx="92.742" fill="none" stroke-width="1.224" cy="3.723" r="1.908" id="connector20pin" stroke="#9A916C"/>
  <circle  cx="85.542" fill="none" stroke-width="1.224" cy="3.723" r="1.908" id="connector21pin" stroke="#9A916C"/>
  <circle  cx="78.342" fill="none" stroke-width="1.224" cy="3.723" r="1.908" id="connector22pin" stroke="#9A916C"/>
  <circle  cx="71.143" fill="none" stroke-width="1.224" cy="3.723" r="1.908" id="connector23pin" stroke="#9A916C"/>
  <circle  cx="63.941" fill="none" stroke-width="1.224" cy="3.723" r="1.908" id="connector24pin" stroke="#9A916C"/>
  <circle  cx="56.743" fill="none" stroke-width="1.224" cy="3.723" r="1.908" id="connector25pin" stroke="#9A916C"/>
  <circle  cx="49.542" fill="none" stroke-width="1.224" cy="3.723" r="1.908" id="connector26pin" stroke="#9A916C"/>
  <circle  cx="42.342" fill="none" stroke-width="1.224" cy="3.723" r="1.908" id="connector27pin" stroke="#9A916C"/>
  <circle  cx="35.143" fill="none" stroke-width="1.224" cy="3.723" r="1.908" id="connector28pin" stroke="#9A916C"/>
  <circle  cx="27.942" fill="none" stroke-width="1.224" cy="3.723" r="1.908" id="connector29pin" stroke="#9A916C"/>
  <circle  cx="20.742" fill="none" stroke-width="1.224" cy="3.723" r="1.908" id="connector30pin" stroke="#9A916C"/>
  <circle  cx="13.542" fill="none" stroke-width="1.224" cy="3.723" r="1.908" id="connector31pin" stroke="#9A916C"/>
  <circle  cx="6.342" fill="none" stroke-width="1.224" cy="3.723" r="1.908" id="connector32pin" stroke="#9A916C"/>
  <circle  cx="13.542" fill="none" stroke-width="1.224" cy="11.949" r="1.908" id="connector36pin" stroke="#9A916C"/>
  <circle  cx="35.149" fill="none" stroke-width="1.224" cy="11.949" r="1.908" id="connector34pin" stroke="#9A916C"/>
  <circle  cx="27.942" fill="none" stroke-width="1.224" cy="11.949" r="1.908" id="connector35pin" stroke="#9A916C"/>
  <circle  cx="99.941" fill="none" stroke-width="1.224" cy="46.922" r="1.908" id="connector13pin" stroke="#9A916C"/>
  <circle  cx="92.742" fill="none" stroke-width="1.224" cy="46.922" r="1.908" id="connector12pin" stroke="#9A916C"/>
  <circle  cx="85.542" fill="none" stroke-width="1.224" cy="46.922" r="1.908" id="connector11pin" stroke="#9A916C"/>
  <circle  cx="78.342" fill="none" stroke-width="1.224" cy="46.922" r="1.908" id="connector10pin" stroke="#9A916C"/>
  <circle  cx="71.143" fill="none" stroke-width="1.224" cy="46.922" r="1.908" id="connector9pin" stroke="#9A916C"/>
  <circle  cx="63.941" fill="none" stroke-width="1.224" cy="46.922" r="1.908" id="connector8pin" stroke="#9A916C"/>
  <circle  cx="56.743" fill="none" stroke-width="1.224" cy="46.922" r="1.908" id="connector7pin" stroke="#9A916C"/>
  <circle  cx="49.542" fill="none" stroke-width="1.224" cy="46.922" r="1.908" id="connector6pin" stroke="#9A916C"/>
  <circle  cx="42.342" fill="none" stroke-width="1.224" cy="46.922" r="1.908" id="connector5pin" stroke="#9A916C"/>
  <circle  cx="35.143" fill="none" stroke-width="1.224" cy="46.922" r="1.908" id="connector4pin" stroke="#9A916C"/>
  <circle  cx="27.942" fill="none" stroke-width="1.224" cy="46.922" r="1.908" id="connector3pin" stroke="#9A916C"/>
  <circle  cx="20.742" fill="none" stroke-width="1.224" cy="46.922" r="1.908" id="connector2pin" stroke="#9A916C"/>
  <circle  cx="13.542" fill="none" stroke-width="1.224" cy="46.922" r="1.908" id="connector1pin" stroke="#9A916C"/>
  <circle  cx="6.342" fill="none" stroke-width="1.224" cy="46.922" r="1.908" id="connector0pin" stroke="#9A916C"/>
  <circle  cx="42.349" fill="none" stroke-width="1.224" cy="11.95" r="1.908" id="connector33pin" stroke="#9A916C"/>
  <circle  cx="99.943" fill="none" stroke-width="1.224" cy="32.523" r="1.908" id="connector15pin" stroke="#9A916C"/>
  <circle  cx="99.941" fill="none" stroke-width="1.224" cy="39.723" r="1.908" id="connector14pin" stroke="#9A916C"/>
  <circle  cx="99.943" fill="none" stroke-width="1.224" cy="25.323" r="1.908" id="connector16pin" stroke="#9A916C"/>
  <circle  cx="99.941" fill="none" stroke-width="1.224" cy="10.923" r="1.908" id="connector18pin" stroke="#9A916C"/>
  <circle  cx="99.943" fill="none" stroke-width="1.224" cy="18.122" r="1.908" id="connector17pin" stroke="#9A916C"/>
  <circle  cx="40.054" fill="none" stroke-width="0.5" cy="22.724" r="1.417" id="_x30_.26.37" stroke="#9A916C"/>
  <circle  cx="43.901" fill="none" stroke-width="0.5" cy="22.724" r="1.417" id="connector16pin_1_" stroke="#9A916C"/>
 </g>
 <g transform="matrix(1, 0, 0, 1, 53.1504, 43.1858)">
  <g >
   <g >
    <g >
     <g >
      <g  id="g156">
       <g  id="g158">
        <g  id="_x30_.25_1_">
         <g  id="_x30_.25">
          <g  id="_x30_.25.0">
           <g transform="matrix(1, 0, 0, 1, 0, -6.2002)">
            <text  fill="#C8C8C8" font-family="'OCRA'" id="_x30_.25.0.0" font-size="3.8634">teensy3.1</text>
           </g>
          </g>
         </g>
        </g>
       </g>
      </g>
     </g>
    </g>
   </g>
  </g>
 </g>
</g>
</g></g><g partID='122660'><g transform='translate(388.014,51.2624)' ><g transform='matrix(0,1,-1,0,0,0)'  ><g xmlns="http://www.w3.org/2000/svg" id="breadboard">
 <path xmlns="http://www.w3.org/2000/svg" stroke-width="0.8826" d="M31.203,33.371c0,1.563,-1.271,2.835,-2.834,2.835L5.453,36.206c-1.565,0,-2.834,-1.271,-2.834,-2.835L2.619,5.875c0,-1.564,1.269,-2.835,2.834,-2.835l22.916,0c1.564,0,2.834,1.271,2.834,2.835L31.203,33.371L31.203,33.371z" stroke="#000000"/>
 <rect xmlns="http://www.w3.org/2000/svg" x="1.452" fill="#CCCCCC" y="17.415" width="30.833" height="4.416"/>
 <rect xmlns="http://www.w3.org/2000/svg" x="23.187" fill="#CCCCCC" y="36.197" width="1.734" height="2.666"/>
 <rect xmlns="http://www.w3.org/2000/svg" x="15.986" fill="#CCCCCC" y="36.197" width="1.735" height="2.666"/>
 <rect xmlns="http://www.w3.org/2000/svg" x="8.786" fill="#CCCCCC" y="36.197" width="1.735" height="2.666"/>
 <g xmlns="http://www.w3.org/2000/svg">
  <path xmlns="http://www.w3.org/2000/svg" d="M27.648,35.209L4.733,35.209c-1.806,0,-3.275,-1.471,-3.275,-3.277L1.458,4.435c0,-1.806,1.469,-3.275,3.275,-3.275l22.915,0c1.806,0,3.275,1.469,3.275,3.275l0,27.497C30.923,33.739,29.454,35.209,27.648,35.209zM4.733,2.042c-1.319,0,-2.393,1.073,-2.393,2.393l0,27.497c0,1.32,1.073,2.395,2.393,2.395l22.915,0c1.319,0,2.393,-1.074,2.393,-2.395L30.041,4.435c0,-1.319,-1.073,-2.393,-2.393,-2.393L4.733,2.042z"/>
 </g>
 <polygon xmlns="http://www.w3.org/2000/svg" fill="#CCCCCC" points="31.703,6.956,31.703,32.29,30.982,30.852,1.399,30.852,1.399,5.517,30.982,5.517"/>
 <polygon xmlns="http://www.w3.org/2000/svg" fill="#ABABAB" points="32.287,17.415,32.287,21.831,31.566,20.392,1.399,20.31,1.385,21.811,0.732,20.392,0.732,15.976,31.566,15.976"/>
 <path xmlns="http://www.w3.org/2000/svg" fill="#ABABAB" d="M30.267,31.689c0,1.539,-1.246,2.785,-2.785,2.785L4.971,34.474c-1.538,0,-2.785,-1.246,-2.785,-2.785L2.186,4.678c0,-1.537,1.247,-2.785,2.785,-2.785l22.511,0c1.537,0,2.784,1.248,2.784,2.785L30.267,31.689L30.267,31.689z"/>
 <circle xmlns="http://www.w3.org/2000/svg" cx="27.386" cy="31.429" r="1.917"/>
 <circle xmlns="http://www.w3.org/2000/svg" cx="5.065" cy="31.429" r="1.917"/>
 <circle xmlns="http://www.w3.org/2000/svg" cx="27.386" cy="4.787" r="1.917"/>
 <circle xmlns="http://www.w3.org/2000/svg" cx="5.065" cy="4.787" r="1.917"/>
 <circle xmlns="http://www.w3.org/2000/svg" cx="16.194" fill="#878787" cy="18.162" r="8.125" stroke="#777777"/>
 <circle xmlns="http://www.w3.org/2000/svg" cx="16.194" fill="#878787" cy="18.162" r="6.5"/>
 <circle xmlns="http://www.w3.org/2000/svg" cx="15.476" fill="#3A3A3A" cy="16.722" r="6.5"/>
 <polygon xmlns="http://www.w3.org/2000/svg" fill="#3A3A3A" points="6.731,13.768,9.862,19.923,21.428,14.111,18.394,8.098"/>
 <path xmlns="http://www.w3.org/2000/svg" fill="#595959" d="M13.37,20.268l7.149,-7.957c0.122,0.496,0.109,0.963,0.109,1.498c0,3.59,-2.91,6.502,-6.501,6.502C13.871,20.312,13.619,20.297,13.37,20.268z"/>
 <path xmlns="http://www.w3.org/2000/svg" fill="#3A3A3A" d="M13.364,20.309c-3.275,-0.335,-5.831,-3.104,-5.831,-6.469c0,-3.59,2.91,-6.5,6.5,-6.5c3.122,0,5.728,2.198,6.357,5.13L13.364,20.309z"/>
 <path xmlns="http://www.w3.org/2000/svg" fill="#3A3A3A" d="M11.924,17.429c-3.275,-0.335,-5.831,-3.105,-5.831,-6.469c0,-3.59,2.91,-6.5,6.5,-6.5c3.122,0,5.729,2.198,6.358,5.13L11.924,17.429z"/>
 <path xmlns="http://www.w3.org/2000/svg" fill="#FFFFFF" opacity="0.2" d="M30.923,4.701c0,-1.806,-1.47,-3.275,-3.275,-3.275L4.733,1.426c-1.806,0,-3.275,1.469,-3.275,3.275L1.458,4.435c0,-1.806,1.469,-3.275,3.275,-3.275l22.915,0c1.806,0,3.275,1.469,3.275,3.275"/>
 <polygon xmlns="http://www.w3.org/2000/svg" fill="#828282" points="11.924,17.429,13.37,20.268,20.521,12.312,19.066,9.493"/>
</g>
</g></g></g><g partID='123170'><g transform='translate(388.014,0.862422)' ><g transform='matrix(0,1,-1,0,0,0)'  ><g xmlns="http://www.w3.org/2000/svg" id="breadboard">
 <path xmlns="http://www.w3.org/2000/svg" stroke-width="0.8826" d="M31.203,33.371c0,1.563,-1.271,2.835,-2.834,2.835L5.453,36.206c-1.565,0,-2.834,-1.271,-2.834,-2.835L2.619,5.875c0,-1.564,1.269,-2.835,2.834,-2.835l22.916,0c1.564,0,2.834,1.271,2.834,2.835L31.203,33.371L31.203,33.371z" stroke="#000000"/>
 <rect xmlns="http://www.w3.org/2000/svg" x="1.452" fill="#CCCCCC" y="17.415" width="30.833" height="4.416"/>
 <rect xmlns="http://www.w3.org/2000/svg" x="23.187" fill="#CCCCCC" y="36.197" width="1.734" height="2.666"/>
 <rect xmlns="http://www.w3.org/2000/svg" x="15.986" fill="#CCCCCC" y="36.197" width="1.735" height="2.666"/>
 <rect xmlns="http://www.w3.org/2000/svg" x="8.786" fill="#CCCCCC" y="36.197" width="1.735" height="2.666"/>
 <g xmlns="http://www.w3.org/2000/svg">
  <path xmlns="http://www.w3.org/2000/svg" d="M27.648,35.209L4.733,35.209c-1.806,0,-3.275,-1.471,-3.275,-3.277L1.458,4.435c0,-1.806,1.469,-3.275,3.275,-3.275l22.915,0c1.806,0,3.275,1.469,3.275,3.275l0,27.497C30.923,33.739,29.454,35.209,27.648,35.209zM4.733,2.042c-1.319,0,-2.393,1.073,-2.393,2.393l0,27.497c0,1.32,1.073,2.395,2.393,2.395l22.915,0c1.319,0,2.393,-1.074,2.393,-2.395L30.041,4.435c0,-1.319,-1.073,-2.393,-2.393,-2.393L4.733,2.042z"/>
 </g>
 <polygon xmlns="http://www.w3.org/2000/svg" fill="#CCCCCC" points="31.703,6.956,31.703,32.29,30.982,30.852,1.399,30.852,1.399,5.517,30.982,5.517"/>
 <polygon xmlns="http://www.w3.org/2000/svg" fill="#ABABAB" points="32.287,17.415,32.287,21.831,31.566,20.392,1.399,20.31,1.385,21.811,0.732,20.392,0.732,15.976,31.566,15.976"/>
 <path xmlns="http://www.w3.org/2000/svg" fill="#ABABAB" d="M30.267,31.689c0,1.539,-1.246,2.785,-2.785,2.785L4.971,34.474c-1.538,0,-2.785,-1.246,-2.785,-2.785L2.186,4.678c0,-1.537,1.247,-2.785,2.785,-2.785l22.511,0c1.537,0,2.784,1.248,2.784,2.785L30.267,31.689L30.267,31.689z"/>
 <circle xmlns="http://www.w3.org/2000/svg" cx="27.386" cy="31.429" r="1.917"/>
 <circle xmlns="http://www.w3.org/2000/svg" cx="5.065" cy="31.429" r="1.917"/>
 <circle xmlns="http://www.w3.org/2000/svg" cx="27.386" cy="4.787" r="1.917"/>
 <circle xmlns="http://www.w3.org/2000/svg" cx="5.065" cy="4.787" r="1.917"/>
 <circle xmlns="http://www.w3.org/2000/svg" cx="16.194" fill="#878787" cy="18.162" r="8.125" stroke="#777777"/>
 <circle xmlns="http://www.w3.org/2000/svg" cx="16.194" fill="#878787" cy="18.162" r="6.5"/>
 <circle xmlns="http://www.w3.org/2000/svg" cx="15.476" fill="#3A3A3A" cy="16.722" r="6.5"/>
 <polygon xmlns="http://www.w3.org/2000/svg" fill="#3A3A3A" points="6.731,13.768,9.862,19.923,21.428,14.111,18.394,8.098"/>
 <path xmlns="http://www.w3.org/2000/svg" fill="#595959" d="M13.37,20.268l7.149,-7.957c0.122,0.496,0.109,0.963,0.109,1.498c0,3.59,-2.91,6.502,-6.501,6.502C13.871,20.312,13.619,20.297,13.37,20.268z"/>
 <path xmlns="http://www.w3.org/2000/svg" fill="#3A3A3A" d="M13.364,20.309c-3.275,-0.335,-5.831,-3.104,-5.831,-6.469c0,-3.59,2.91,-6.5,6.5,-6.5c3.122,0,5.728,2.198,6.357,5.13L13.364,20.309z"/>
 <path xmlns="http://www.w3.org/2000/svg" fill="#3A3A3A" d="M11.924,17.429c-3.275,-0.335,-5.831,-3.105,-5.831,-6.469c0,-3.59,2.91,-6.5,6.5,-6.5c3.122,0,5.729,2.198,6.358,5.13L11.924,17.429z"/>
 <path xmlns="http://www.w3.org/2000/svg" fill="#FFFFFF" opacity="0.2" d="M30.923,4.701c0,-1.806,-1.47,-3.275,-3.275,-3.275L4.733,1.426c-1.806,0,-3.275,1.469,-3.275,3.275L1.458,4.435c0,-1.806,1.469,-3.275,3.275,-3.275l22.915,0c1.806,0,3.275,1.469,3.275,3.275"/>
 <polygon xmlns="http://www.w3.org/2000/svg" fill="#828282" points="11.924,17.429,13.37,20.268,20.521,12.312,19.066,9.493"/>
</g>
</g></g></g><g partID='122640'><g transform='translate(296.342,28.4934)' ><g transform='matrix(0,1,-1,0,0,0)'  ><g  id="breadboard" gorn="0.3">
 <g  id="icon" gorn="0.3.0">
  <path  fill="#C62717" d="M0,36l43.2,0L43.2,0L0,0L0,36M38.161,32.4c0,-0.795,0.645,-1.44,1.439,-1.44s1.439,0.646,1.439,1.44S40.395,33.84,39.6,33.84S38.161,33.195,38.161,32.4zM30.959,32.4c0,-0.795,0.645,-1.44,1.44,-1.44s1.44,0.646,1.44,1.44s-0.645,1.439,-1.44,1.439S30.959,33.195,30.959,32.4zM23.76,32.4c-0.001,-0.795,0.644,-1.441,1.438,-1.441c0.796,0,1.44,0.644,1.441,1.439c0,0,0,0.001,0,0.002c0,0.795,-0.646,1.439,-1.44,1.439S23.76,33.195,23.76,32.4zM16.56,32.4c0,-0.795,0.644,-1.441,1.439,-1.441c0.795,0,1.44,0.644,1.441,1.439c0,0,0,0.001,0,0.002c0,0.795,-0.645,1.439,-1.44,1.439S16.56,33.195,16.56,32.4zM9.36,32.4c0,-0.795,0.645,-1.44,1.44,-1.44c0.795,0,1.44,0.646,1.44,1.44s-0.645,1.439,-1.44,1.439C10.005,33.84,9.36,33.195,9.36,32.4zM2.16,32.4c0,-0.795,0.644,-1.44,1.439,-1.441c0.795,0,1.44,0.645,1.44,1.439c0,0.001,0,0.002,0,0.002c0,0.795,-0.645,1.439,-1.44,1.439S2.16,33.195,2.16,32.4zM2.16,3.6c0,-0.795,0.644,-1.44,1.439,-1.44c0.795,0,1.44,0.644,1.44,1.439c0,0,0,0,0,0.001c0,0.795,-0.645,1.44,-1.44,1.44S2.16,4.395,2.16,3.6zM9.36,3.6c0,-0.795,0.645,-1.44,1.44,-1.44c0.795,0,1.44,0.645,1.44,1.44c0,0.795,-0.645,1.44,-1.44,1.44C10.005,5.04,9.36,4.395,9.36,3.6zM16.56,3.6c0,-0.795,0.644,-1.44,1.439,-1.441c0.795,0,1.44,0.644,1.441,1.439c0,0.001,0,0.001,0,0.002c0,0.795,-0.645,1.44,-1.44,1.44S16.56,4.395,16.56,3.6zM23.76,3.6c-0.001,-0.795,0.644,-1.44,1.438,-1.441c0.796,0,1.44,0.644,1.441,1.439c0,0.001,0,0.001,0,0.002c0,0.795,-0.646,1.44,-1.44,1.44S23.76,4.395,23.76,3.6zM30.959,3.6c0,-0.795,0.645,-1.44,1.44,-1.44s1.44,0.645,1.44,1.44c0,0.795,-0.645,1.44,-1.44,1.44S30.959,4.395,30.959,3.6zM38.161,3.6c0,-0.795,0.645,-1.44,1.439,-1.44S41.04,2.805,41.04,3.6c0,0.795,-0.645,1.44,-1.439,1.44S38.161,4.395,38.161,3.6z"/>
  <g >
   <title >layer 21</title>
   <line  x1="14.4" x2="14.4" y1="36" fill="none" y2="25.2" stroke-width="0.576" stroke="#FFFFFF" stroke-linecap="round"/>
   <line  x1="14.4" x2="14.4" y1="0" fill="none" y2="10.8" stroke-width="0.576" stroke="#FFFFFF" stroke-linecap="round"/>
   <line  x1="28.799" x2="28.799" y1="0" fill="none" y2="10.8" stroke-width="0.576" stroke="#FFFFFF" stroke-linecap="round"/>
   <line  x1="28.799" x2="28.799" y1="36" fill="none" y2="25.2" stroke-width="0.576" stroke="#FFFFFF" stroke-linecap="round"/>
   <line  x1="0" x2="7.2" y1="18" fill="none" y2="18" stroke-width="0.576" stroke="#FFFFFF" stroke-linecap="round"/>
   <line  x1="18" x2="25.2" y1="18" fill="none" y2="18" stroke-width="0.864" stroke="#FFFFFF" stroke-linecap="round"/>
   <line  x1="36" x2="43.2" y1="18" fill="none" y2="18" stroke-width="0.576" stroke="#FFFFFF" stroke-linecap="round"/>
   <g >
    <title >text:TXI</title>
    <g transform="matrix(1, 0, 0, 1, 0.8999, 29.1602)">
     <g >
      <g >
       <g >
        <text  fill="#FFFFFF" font-family="OCRA" font-size="2.5056">LV1</text>
       </g>
      </g>
     </g>
    </g>
   </g>
   <g >
    <title >text:RXO</title>
    <g transform="matrix(1, 0, 0, 1, 8.1001, 29.1602)">
     <g >
      <g >
       <g >
        <text  fill="#FFFFFF" font-family="OCRA" font-size="2.5056">LV2</text>
       </g>
      </g>
     </g>
    </g>
   </g>
   <g >
    <title >text:TXO</title>
    <g transform="matrix(1, 0, 0, 1, 0.8999, 8.9995)">
     <g >
      <g >
       <g >
        <text  fill="#FFFFFF" font-family="OCRA" font-size="2.5056">HV1</text>
       </g>
      </g>
     </g>
    </g>
   </g>
   <g >
    <title >text:RXI</title>
    <g transform="matrix(1, 0, 0, 1, 8.1001, 8.9995)">
     <g >
      <g >
       <g >
        <text  fill="#FFFFFF" font-family="OCRA" font-size="2.5056">HV2</text>
       </g>
      </g>
     </g>
    </g>
   </g>
   <g >
    <title >text:HV</title>
    <g transform="matrix(1, 0, 0, 1, 16.2002, 8.9995)">
     <g >
      <g >
       <g >
        <text  fill="#FFFFFF" font-family="OCRA" font-size="2.5056">HV</text>
       </g>
      </g>
     </g>
    </g>
   </g>
   <g >
    <title >text:GND</title>
    <g transform="matrix(1, 0, 0, 1, 22.5005, 8.9995)">
     <g >
      <g >
       <g >
        <text  fill="#FFFFFF" font-family="OCRA" font-size="2.5056">GND</text>
       </g>
      </g>
     </g>
    </g>
   </g>
   <g >
    <title >text:GND</title>
    <g transform="matrix(1, 0, 0, 1, 22.5005, 29.1602)">
     <g >
      <g >
       <g >
        <text  fill="#FFFFFF" font-family="OCRA" font-size="2.5056">GND</text>
       </g>
      </g>
     </g>
    </g>
   </g>
   <g >
    <title >text:LV</title>
    <g transform="matrix(1, 0, 0, 1, 16.2002, 29.1602)">
     <g >
      <g >
       <g >
        <text  fill="#FFFFFF" font-family="OCRA" font-size="2.5056">LV</text>
       </g>
      </g>
     </g>
    </g>
   </g>
   <g >
    <title >text:RXI</title>
    <g transform="matrix(1, 0, 0, 1, 29.6997, 8.9995)">
     <g >
      <g >
       <g >
        <text  fill="#FFFFFF" font-family="OCRA" font-size="2.5056">HV3</text>
       </g>
      </g>
     </g>
    </g>
   </g>
   <g >
    <title >text:TXO</title>
    <g transform="matrix(1, 0, 0, 1, 36.8999, 9.1802)">
     <g >
      <g >
       <g >
        <text  fill="#FFFFFF" font-family="OCRA" font-size="2.5056">HV4</text>
       </g>
      </g>
     </g>
    </g>
   </g>
   <g >
    <title >text:TXI</title>
    <g transform="matrix(1, 0, 0, 1, 36.8999, 29.1602)">
     <g >
      <g >
       <g >
        <text  fill="#FFFFFF" font-family="OCRA" font-size="2.5056">LV4</text>
       </g>
      </g>
     </g>
    </g>
   </g>
   <g >
    <title >text:RXO</title>
    <g transform="matrix(1, 0, 0, 1, 29.6997, 29.1602)">
     <g >
      <g >
       <g >
        <text  fill="#FFFFFF" font-family="OCRA" font-size="2.5056">LV3</text>
       </g>
      </g>
     </g>
    </g>
   </g>
   <g >
    <title >text:Chan1</title>
    <g transform="matrix(1, 0, 0, 1, 15.12, 22.68)">
     <g >
      <g >
       <g >
        <g >
         <g transform="rotate(-90)">
          <g >
           <g >
            <g >
             <g >
              <g transform="matrix(1, 0, 0, 1, -1.2741, -0.000366211)">
               <g >
                <g >
                 <g >
                  <text  fill="#FFFFFF" font-family="OCRA" font-size="2.6726">Chan12</text>
                 </g>
                </g>
               </g>
              </g>
             </g>
            </g>
           </g>
          </g>
         </g>
        </g>
       </g>
      </g>
     </g>
    </g>
   </g>
   <g >
    <title >text:Chan2</title>
    <g transform="matrix(1, 0, 0, 1, 29.52, 22.68)">
     <g >
      <g >
       <g >
        <g >
         <g transform="rotate(-90)">
          <g >
           <g >
            <g >
             <g >
              <g transform="matrix(1, 0, 0, 1, -1.1325, 3.05176e-05)">
               <g >
                <g >
                 <g >
                  <text  fill="#FFFFFF" font-family="OCRA" font-size="2.6726">Chan34</text>
                 </g>
                </g>
               </g>
              </g>
             </g>
            </g>
           </g>
          </g>
         </g>
        </g>
       </g>
      </g>
     </g>
    </g>
   </g>
   <g >
    <title >text:LV</title>
    <g transform="matrix(1, 0, 0, 1, 2.88, 25.56)">
     <g >
      <g >
       <g >
        <g >
         <g transform="rotate(-90)">
          <g >
           <g >
            <g >
             <g >
              <g transform="matrix(1, 0, 0, 1, -0.000549316, 0.000366211)">
               <g >
                <g >
                 <g >
                  <text  fill="#FFFFFF" font-family="OCRA" font-size="2.6726">LV</text>
                 </g>
                </g>
               </g>
              </g>
             </g>
            </g>
           </g>
          </g>
         </g>
        </g>
       </g>
      </g>
     </g>
    </g>
   </g>
   <g >
    <title >text:HV</title>
    <g transform="matrix(1, 0, 0, 1, 2.88, 14.4)">
     <g >
      <g >
       <g >
        <g >
         <g transform="rotate(-90)">
          <g >
           <g >
            <g >
             <g >
              <g transform="matrix(1, 0, 0, 1, -0.000396729, 0.000366211)">
               <g >
                <g >
                 <g >
                  <text  fill="#FFFFFF" font-family="OCRA" font-size="2.6726">HV</text>
                 </g>
                </g>
               </g>
              </g>
             </g>
            </g>
           </g>
          </g>
         </g>
        </g>
       </g>
      </g>
     </g>
    </g>
   </g>
   <g >
    <title >text:HV</title>
    <g transform="matrix(1, 0, 0, 1, 41.76, 14.4)">
     <g >
      <g >
       <g >
        <g >
         <g transform="rotate(-90)">
          <g >
           <g >
            <g >
             <g >
              <g transform="matrix(1, 0, 0, 1, -0.000396729, 0.000244141)">
               <g >
                <g >
                 <g >
                  <text  fill="#FFFFFF" font-family="OCRA" font-size="2.6726">HV</text>
                 </g>
                </g>
               </g>
              </g>
             </g>
            </g>
           </g>
          </g>
         </g>
        </g>
       </g>
      </g>
     </g>
    </g>
   </g>
   <g >
    <title >text:LV</title>
    <g transform="matrix(1, 0, 0, 1, 41.76, 25.92)">
     <g >
      <g >
       <g >
        <g >
         <g transform="rotate(-90)">
          <g >
           <g >
            <g >
             <g >
              <g transform="matrix(1, 0, 0, 1, 9.15527e-05, 0.000244141)">
               <g >
                <g >
                 <g >
                  <text  fill="#FFFFFF" font-family="OCRA" font-size="2.6726">LV</text>
                 </g>
                </g>
               </g>
              </g>
             </g>
            </g>
           </g>
          </g>
         </g>
        </g>
       </g>
      </g>
     </g>
    </g>
   </g>
   <g >
    <title >element:JP1</title>
    <g >
     <title >package:1X06</title>
    </g>
   </g>
   <g >
    <title >element:JP2</title>
    <g >
     <title >package:1X06</title>
    </g>
   </g>
   <g >
    <title >element:Q1</title>
    <g >
     <title >package:SOT23-3</title>
    </g>
   </g>
   <g >
    <title >element:Q2</title>
    <g >
     <title >package:SOT23-3</title>
    </g>
   </g>
   <g >
    <title >element:R1</title>
    <g >
     <title >package:C0402</title>
    </g>
   </g>
   <g >
    <title >element:R3</title>
    <g >
     <title >package:C0402</title>
    </g>
   </g>
   <g >
    <title >element:R4</title>
    <g >
     <title >package:C0402</title>
    </g>
   </g>
   <g >
    <title >element:R5</title>
    <g >
     <title >package:C0402</title>
    </g>
   </g>
   <g >
    <title >element:R6</title>
    <g >
     <title >package:C0402</title>
    </g>
   </g>
   <g >
    <title >element:R7</title>
    <g >
     <title >package:C0402</title>
    </g>
   </g>
   <g >
    <title >element:R8</title>
    <g >
     <title >package:C0402</title>
    </g>
   </g>
   <g >
    <title >element:R9</title>
    <g >
     <title >package:C0402</title>
    </g>
   </g>
   <g >
    <title >element:U$1</title>
    <g >
     <title >package:SFE-LOGO-FLAME</title>
    </g>
   </g>
  </g>
  <circle  cx="39.6" fill="none" stroke-width="0.864" cy="32.399" r="1.872" id="connector0pin" gorn="0.3.0.2" stroke="#9A916C"/>
  <circle  cx="32.4" fill="none" stroke-width="0.864" cy="32.399" r="1.872" id="connector1pin" gorn="0.3.0.3" stroke="#9A916C"/>
  <circle  cx="25.2" fill="none" stroke-width="0.864" cy="32.399" r="1.872" id="connector2pin" gorn="0.3.0.4" stroke="#9A916C"/>
  <circle  cx="18" fill="none" stroke-width="0.864" cy="32.399" r="1.872" id="connector3pin" gorn="0.3.0.5" stroke="#9A916C"/>
  <circle  cx="10.8" fill="none" stroke-width="0.864" cy="32.399" r="1.872" id="connector4pin" gorn="0.3.0.6" stroke="#9A916C"/>
  <circle  cx="3.6" fill="none" stroke-width="0.864" cy="32.399" r="1.872" id="connector5pin" gorn="0.3.0.7" stroke="#9A916C"/>
  <circle  cx="3.6" fill="none" stroke-width="0.864" cy="3.6" r="1.872" id="connector6pin" gorn="0.3.0.8" stroke="#9A916C"/>
  <circle  cx="10.8" fill="none" stroke-width="0.864" cy="3.6" r="1.872" id="connector7pin" gorn="0.3.0.9" stroke="#9A916C"/>
  <circle  cx="18" fill="none" stroke-width="0.864" cy="3.6" r="1.872" id="connector8pin" gorn="0.3.0.10" stroke="#9A916C"/>
  <circle  cx="25.2" fill="none" stroke-width="0.864" cy="3.6" r="1.872" id="connector9pin" gorn="0.3.0.11" stroke="#9A916C"/>
  <circle  cx="32.4" fill="none" stroke-width="0.864" cy="3.6" r="1.872" id="connector10pin" gorn="0.3.0.12" stroke="#9A916C"/>
  <circle  cx="39.6" fill="none" stroke-width="0.864" cy="3.6" r="1.872" id="connector11pin" gorn="0.3.0.13" stroke="#9A916C"/>
 </g>
</g>
</g></g></g><g partID='140320'><g transform='translate(0,63.0678)' ><g transform='matrix(0,-1,1,0,0,0)'  ><g xmlns="http://www.w3.org/2000/svg" id="breadboard">
<rect x="0" fill="#000000" stroke-width="0" xmlns="http://www.w3.org/2000/svg" id="upper" width="25.9216" y="0" height="17.4073"/>
<rect x="0" fill="#404040" stroke-width="0" xmlns="http://www.w3.org/2000/svg" id="lower" width="25.9216" y="15.84" height="2.22912"/>
<text text-anchor="start" x="1.86437" fill="#e6e6e6" font-family="Droid Sans" xmlns="http://www.w3.org/2000/svg" id="label" y="9.36" stroke="none" font-size="5.256">TODO</text>
<circle cx="22.3216" fill="#8C8C8C" stroke-width="0" cy="3.6" xmlns="http://www.w3.org/2000/svg" r="2.16"/>
<text text-anchor="middle" font-weight="bold" x="22.3216" font-family="Droid Sans" stroke-width="0" xmlns="http://www.w3.org/2000/svg" y="4.824" font-size="3.96">?</text>
<g x="1.3464" fill="#8C8C8C" stroke-width="0" xmlns="http://www.w3.org/2000/svg" id="connector0terminal" y="18.4219" width="1.656" height="1.44" stroke="none"/>
<rect x="1.3464" fill="#8C8C8C" stroke-width="0" xmlns="http://www.w3.org/2000/svg" id="connector0pin" y="16.8019" width="1.656" height="3.06" stroke="none"/>
<g x="8.5464" fill="#8C8C8C" stroke-width="0" xmlns="http://www.w3.org/2000/svg" id="connector1terminal" y="18.4219" width="1.656" height="1.44" stroke="none"/>
<rect x="8.5464" fill="#8C8C8C" stroke-width="0" xmlns="http://www.w3.org/2000/svg" id="connector1pin" y="16.8019" width="1.656" height="3.06" stroke="none"/>
<g x="15.7464" fill="#8C8C8C" stroke-width="0" xmlns="http://www.w3.org/2000/svg" id="connector2terminal" y="18.4219" width="1.656" height="1.44" stroke="none"/>
<rect x="15.7464" fill="#8C8C8C" stroke-width="0" xmlns="http://www.w3.org/2000/svg" id="connector2pin" y="16.8019" width="1.656" height="3.06" stroke="none"/>
<g x="22.9464" fill="#8C8C8C" stroke-width="0" xmlns="http://www.w3.org/2000/svg" id="connector3terminal" y="18.4219" width="1.656" height="1.44" stroke="none"/>
<rect x="22.9464" fill="#8C8C8C" stroke-width="0" xmlns="http://www.w3.org/2000/svg" id="connector3pin" y="16.8019" width="1.656" height="3.06" stroke="none"/>
</g>
</g></g></g><g partID='123900'><line stroke-linecap='round' stroke='#000000' x1='336.013' y1='75.1897' x2='350.264' y2='75.4164' stroke-width='3.2' /><line stroke-linecap='round' stroke='#404040' x1='336.013' y1='75.1897' x2='350.264' y2='75.4164' stroke-width='1.6' /></g><g partID='123830'><line stroke-linecap='round' stroke='#000000' x1='336.013' y1='53.7292' x2='336.013' y2='75.1897' stroke-width='3.2' /><line stroke-linecap='round' stroke='#404040' x1='336.013' y1='53.7292' x2='336.013' y2='75.1897' stroke-width='1.6' /></g><g partID='122680'><line stroke-linecap='round' stroke='#000000' x1='292.742' y1='53.6934' x2='336.013' y2='53.7292' stroke-width='3.2' /><line stroke-linecap='round' stroke='#404040' x1='292.742' y1='53.6934' x2='336.013' y2='53.7292' stroke-width='1.6' /></g><g partID='123340'><line stroke-linecap='round' stroke='#000000' x1='336.013' y1='24.829' x2='350.264' y2='25.0164' stroke-width='3.2' /><line stroke-linecap='round' stroke='#404040' x1='336.013' y1='24.829' x2='350.264' y2='25.0164' stroke-width='1.6' /></g><g partID='123270'><line stroke-linecap='round' stroke='#000000' x1='335.837' y1='53.7818' x2='336.013' y2='24.829' stroke-width='3.2' /><line stroke-linecap='round' stroke='#404040' x1='335.837' y1='53.7818' x2='336.013' y2='24.829' stroke-width='1.6' /></g><g partID='123210'><line stroke-linecap='round' stroke='#000000' x1='292.742' y1='53.6934' x2='335.837' y2='53.7818' stroke-width='3.2' /><line stroke-linecap='round' stroke='#404040' x1='292.742' y1='53.6934' x2='335.837' y2='53.7818' stroke-width='1.6' /></g><g partID='124040'><line stroke-linecap='round' stroke='#8c0000' x1='328.86' y1='60.8827' x2='328.86' y2='46.5757' stroke-width='3.2' /><line stroke-linecap='round' stroke='#cc1414' x1='328.86' y1='60.8827' x2='328.86' y2='46.5757' stroke-width='1.6' /></g><g partID='122890'><line stroke-linecap='round' stroke='#8c0000' x1='328.86' y1='46.5757' x2='307.062' y2='46.4472' stroke-width='3.2' /><line stroke-linecap='round' stroke='#cc1414' x1='328.86' y1='46.5757' x2='307.062' y2='46.4472' stroke-width='1.6' /></g><g partID='122820'><line stroke-linecap='round' stroke='#8c0000' x1='307.062' y1='46.4472' x2='292.742' y2='46.4934' stroke-width='3.2' /><line stroke-linecap='round' stroke='#cc1414' x1='307.062' y1='46.4472' x2='292.742' y2='46.4934' stroke-width='1.6' /></g><g partID='122750'><line stroke-linecap='round' stroke='#8c0000' x1='350.342' y1='60.8934' x2='328.86' y2='60.8827' stroke-width='3.2' /><line stroke-linecap='round' stroke='#cc1414' x1='350.342' y1='60.8934' x2='328.86' y2='60.8827' stroke-width='1.6' /></g><g partID='123550'><line stroke-linecap='round' stroke='#8c0000' x1='328.86' y1='46.5757' x2='328.86' y2='10.522' stroke-width='3.2' /><line stroke-linecap='round' stroke='#cc1414' x1='328.86' y1='46.5757' x2='328.86' y2='10.522' stroke-width='1.6' /></g><g partID='123480'><line stroke-linecap='round' stroke='#8c0000' x1='328.86' y1='10.522' x2='350.342' y2='10.4934' stroke-width='3.2' /><line stroke-linecap='round' stroke='#cc1414' x1='328.86' y1='10.522' x2='350.342' y2='10.4934' stroke-width='1.6' /></g><g partID='123410'><line stroke-linecap='round' stroke='#8c0000' x1='292.742' y1='46.4934' x2='328.86' y2='46.5757' stroke-width='3.2' /><line stroke-linecap='round' stroke='#cc1414' x1='292.742' y1='46.4934' x2='328.86' y2='46.5757' stroke-width='1.6' /></g><g partID='124110'><line stroke-linecap='round' stroke='#1b5bb3' x1='321.42' y1='17.6755' x2='321.42' y2='31.9825' stroke-width='3.2' /><line stroke-linecap='round' stroke='#418dd9' x1='321.42' y1='17.6755' x2='321.42' y2='31.9825' stroke-width='1.6' /></g><g partID='124180'><line stroke-linecap='round' stroke='#1b5bb3' x1='321.42' y1='31.9825' x2='292.742' y2='32.0934' stroke-width='3.2' /><line stroke-linecap='round' stroke='#418dd9' x1='321.42' y1='31.9825' x2='292.742' y2='32.0934' stroke-width='1.6' /></g><g partID='123620'><line stroke-linecap='round' stroke='#1b5bb3' x1='350.389' y1='17.7034' x2='321.42' y2='17.6755' stroke-width='3.2' /><line stroke-linecap='round' stroke='#418dd9' x1='350.389' y1='17.7034' x2='321.42' y2='17.6755' stroke-width='1.6' /></g><g partID='123760'><line stroke-linecap='round' stroke='#d6d63a' x1='321.42' y1='39.4222' x2='292.742' y2='39.2934' stroke-width='3.2' /><line stroke-linecap='round' stroke='#fff800' x1='321.42' y1='39.4222' x2='292.742' y2='39.2934' stroke-width='1.6' /></g><g partID='123970'><line stroke-linecap='round' stroke='#d6d63a' x1='321.42' y1='68.0362' x2='321.42' y2='39.4222' stroke-width='3.2' /><line stroke-linecap='round' stroke='#fff800' x1='321.42' y1='68.0362' x2='321.42' y2='39.4222' stroke-width='1.6' /></g><g partID='123690'><line stroke-linecap='round' stroke='#d6d63a' x1='350.389' y1='68.1034' x2='321.42' y2='68.0362' stroke-width='3.2' /><line stroke-linecap='round' stroke='#fff800' x1='350.389' y1='68.1034' x2='321.42' y2='68.0362' stroke-width='1.6' /></g><g partID='124690'><line stroke-linecap='round' stroke='#000000' x1='220.666' y1='89.7879' x2='220.666' y2='53.5044' stroke-width='3.2' /><line stroke-linecap='round' stroke='#404040' x1='220.666' y1='89.7879' x2='220.666' y2='53.5044' stroke-width='1.6' /></g><g partID='124540'><line stroke-linecap='round' stroke='#000000' x1='105.391' y1='89.7879' x2='220.666' y2='89.7879' stroke-width='3.2' /><line stroke-linecap='round' stroke='#404040' x1='105.391' y1='89.7879' x2='220.666' y2='89.7879' stroke-width='1.6' /></g><g partID='124390'><line stroke-linecap='round' stroke='#000000' x1='105.543' y1='75.2924' x2='105.391' y2='89.7879' stroke-width='3.2' /><line stroke-linecap='round' stroke='#404040' x1='105.543' y1='75.2924' x2='105.391' y2='89.7879' stroke-width='1.6' /></g><g partID='124840'><line stroke-linecap='round' stroke='#000000' x1='220.666' y1='53.5044' x2='263.943' y2='53.6934' stroke-width='3.2' /><line stroke-linecap='round' stroke='#404040' x1='220.666' y1='53.5044' x2='263.943' y2='53.6934' stroke-width='1.6' /></g><g partID='125200'><line stroke-linecap='round' stroke='#ad6a38' x1='220.666' y1='46.3233' x2='263.943' y2='46.4934' stroke-width='3.2' /><line stroke-linecap='round' stroke='#ef6100' x1='220.666' y1='46.3233' x2='263.943' y2='46.4934' stroke-width='1.6' /></g><g partID='125130'><line stroke-linecap='round' stroke='#ad6a38' x1='220.666' y1='17.5989' x2='220.666' y2='46.3233' stroke-width='3.2' /><line stroke-linecap='round' stroke='#ef6100' x1='220.666' y1='17.5989' x2='220.666' y2='46.3233' stroke-width='1.6' /></g><g partID='125060'><line stroke-linecap='round' stroke='#ad6a38' x1='119.753' y1='17.5989' x2='220.666' y2='17.5989' stroke-width='3.2' /><line stroke-linecap='round' stroke='#ef6100' x1='119.753' y1='17.5989' x2='220.666' y2='17.5989' stroke-width='1.6' /></g><g partID='124990'><line stroke-linecap='round' stroke='#ad6a38' x1='119.943' y1='32.0934' x2='119.753' y2='17.5989' stroke-width='3.2' /><line stroke-linecap='round' stroke='#ef6100' x1='119.943' y1='32.0934' x2='119.753' y2='17.5989' stroke-width='1.6' /></g><g partID='125750'><line stroke-linecap='round' stroke='#d6d63a' x1='242.21' y1='104.15' x2='242.21' y2='39.1422' stroke-width='3.2' /><line stroke-linecap='round' stroke='#fff800' x1='242.21' y1='104.15' x2='242.21' y2='39.1422' stroke-width='1.6' /></g><g partID='125680'><line stroke-linecap='round' stroke='#d6d63a' x1='242.21' y1='39.1422' x2='263.943' y2='39.2934' stroke-width='3.2' /><line stroke-linecap='round' stroke='#fff800' x1='242.21' y1='39.1422' x2='263.943' y2='39.2934' stroke-width='1.6' /></g><g partID='125610'><line stroke-linecap='round' stroke='#d6d63a' x1='134.493' y1='104.15' x2='242.21' y2='104.15' stroke-width='3.2' /><line stroke-linecap='round' stroke='#fff800' x1='134.493' y1='104.15' x2='242.21' y2='104.15' stroke-width='1.6' /></g><g partID='125540'><line stroke-linecap='round' stroke='#d6d63a' x1='134.344' y1='75.2924' x2='134.493' y2='104.15' stroke-width='3.2' /><line stroke-linecap='round' stroke='#fff800' x1='134.344' y1='75.2924' x2='134.493' y2='104.15' stroke-width='1.6' /></g><g partID='126030'><line stroke-linecap='round' stroke='#1b5bb3' x1='141.674' y1='96.969' x2='141.543' y2='75.2924' stroke-width='3.2' /><line stroke-linecap='round' stroke='#418dd9' x1='141.674' y1='96.969' x2='141.543' y2='75.2924' stroke-width='1.6' /></g><g partID='125960'><line stroke-linecap='round' stroke='#1b5bb3' x1='235.029' y1='96.969' x2='141.674' y2='96.969' stroke-width='3.2' /><line stroke-linecap='round' stroke='#418dd9' x1='235.029' y1='96.969' x2='141.674' y2='96.969' stroke-width='1.6' /></g><g partID='125890'><line stroke-linecap='round' stroke='#1b5bb3' x1='235.029' y1='31.9611' x2='235.029' y2='96.969' stroke-width='3.2' /><line stroke-linecap='round' stroke='#418dd9' x1='235.029' y1='31.9611' x2='235.029' y2='96.969' stroke-width='1.6' /></g><g partID='125820'><line stroke-linecap='round' stroke='#1b5bb3' x1='263.943' y1='32.0934' x2='235.029' y2='31.9611' stroke-width='3.2' /><line stroke-linecap='round' stroke='#418dd9' x1='263.943' y1='32.0934' x2='235.029' y2='31.9611' stroke-width='1.6' /></g><g partID='141730'><line stroke-linecap='round' stroke='#000000' x1='83.8689' y1='89.6691' x2='83.8689' y2='39.4297' stroke-width='3.2' /><line stroke-linecap='round' stroke='#404040' x1='83.8689' y1='89.6691' x2='83.8689' y2='39.4297' stroke-width='1.6' /></g><g partID='141580'><line stroke-linecap='round' stroke='#000000' x1='83.8689' y1='39.4297' x2='19.1419' y2='39.2934' stroke-width='3.2' /><line stroke-linecap='round' stroke='#404040' x1='83.8689' y1='39.4297' x2='19.1419' y2='39.2934' stroke-width='1.6' /></g><g partID='141430'><line stroke-linecap='round' stroke='#000000' x1='105.678' y1='89.6691' x2='83.8689' y2='89.6691' stroke-width='3.2' /><line stroke-linecap='round' stroke='#404040' x1='105.678' y1='89.6691' x2='83.8689' y2='89.6691' stroke-width='1.6' /></g><g partID='140670'><line stroke-linecap='round' stroke='#000000' x1='105.543' y1='75.2924' x2='105.678' y2='89.6691' stroke-width='3.2' /><line stroke-linecap='round' stroke='#404040' x1='105.543' y1='75.2924' x2='105.678' y2='89.6691' stroke-width='1.6' /></g><g partID='142440'><line stroke-linecap='round' stroke='#dc00dc' x1='62.449' y1='46.4399' x2='19.1419' y2='46.4934' stroke-width='3.2' /><line stroke-linecap='round' stroke='#fa50e6' x1='62.449' y1='46.4399' x2='19.1419' y2='46.4934' stroke-width='1.6' /></g><g partID='142300'><line stroke-linecap='round' stroke='#dc00dc' x1='62.449' y1='3.21066' x2='62.449' y2='46.4399' stroke-width='3.2' /><line stroke-linecap='round' stroke='#fa50e6' x1='62.449' y1='3.21066' x2='62.449' y2='46.4399' stroke-width='1.6' /></g><g partID='142160'><line stroke-linecap='round' stroke='#dc00dc' x1='163.317' y1='3.21066' x2='62.449' y2='3.21066' stroke-width='3.2' /><line stroke-linecap='round' stroke='#fa50e6' x1='163.317' y1='3.21066' x2='62.449' y2='3.21066' stroke-width='1.6' /></g><g partID='140860'><line stroke-linecap='round' stroke='#dc00dc' x1='163.142' y1='32.0934' x2='163.317' y2='3.21066' stroke-width='3.2' /><line stroke-linecap='round' stroke='#fa50e6' x1='163.142' y1='32.0934' x2='163.317' y2='3.21066' stroke-width='1.6' /></g><g partID='142370'><line stroke-linecap='round' stroke='#00a0c6' x1='69.4592' y1='53.8395' x2='19.1419' y2='53.6934' stroke-width='3.2' /><line stroke-linecap='round' stroke='#33ffc5' x1='69.4592' y1='53.8395' x2='19.1419' y2='53.6934' stroke-width='1.6' /></g><g partID='142230'><line stroke-linecap='round' stroke='#00a0c6' x1='69.4592' y1='10.6103' x2='69.4592' y2='53.8395' stroke-width='3.2' /><line stroke-linecap='round' stroke='#33ffc5' x1='69.4592' y1='10.6103' x2='69.4592' y2='53.8395' stroke-width='1.6' /></g><g partID='142090'><line stroke-linecap='round' stroke='#00a0c6' x1='155.918' y1='10.6103' x2='69.4592' y2='10.6103' stroke-width='3.2' /><line stroke-linecap='round' stroke='#33ffc5' x1='155.918' y1='10.6103' x2='69.4592' y2='10.6103' stroke-width='1.6' /></g><g partID='140970'><line stroke-linecap='round' stroke='#00a0c6' x1='155.944' y1='32.0934' x2='155.918' y2='10.6103' stroke-width='3.2' /><line stroke-linecap='round' stroke='#33ffc5' x1='155.944' y1='32.0934' x2='155.918' y2='10.6103' stroke-width='1.6' /></g><g partID='141950'><line stroke-linecap='round' stroke='#8c0000' x1='76.8588' y1='17.6204' x2='76.8588' y2='60.8496' stroke-width='3.2' /><line stroke-linecap='round' stroke='#cc1414' x1='76.8588' y1='17.6204' x2='76.8588' y2='60.8496' stroke-width='1.6' /></g><g partID='141880'><line stroke-linecap='round' stroke='#8c0000' x1='105.678' y1='17.6204' x2='76.8588' y2='17.6204' stroke-width='3.2' /><line stroke-linecap='round' stroke='#cc1414' x1='105.678' y1='17.6204' x2='76.8588' y2='17.6204' stroke-width='1.6' /></g><g partID='141080'><line stroke-linecap='round' stroke='#8c0000' x1='105.543' y1='32.0934' x2='105.678' y2='17.6204' stroke-width='3.2' /><line stroke-linecap='round' stroke='#cc1414' x1='105.543' y1='32.0934' x2='105.678' y2='17.6204' stroke-width='1.6' /></g><g partID='142020'><line stroke-linecap='round' stroke='#8c0000' x1='76.8588' y1='60.8496' x2='19.1419' y2='60.8934' stroke-width='3.2' /><line stroke-linecap='round' stroke='#cc1414' x1='76.8588' y1='60.8496' x2='19.1419' y2='60.8934' stroke-width='1.6' /></g></svg>